<?xml version="1.0" encoding="iso-8859-1"?>
<!-- Generator: Adobe Illustrator 19.0.0, SVG Export Plug-In . SVG Version: 6.00 Build 0)  -->
<svg version="1.1" id="Layer_1" xmlns="http://www.w3.org/2000/svg" xmlns:xlink="http://www.w3.org/1999/xlink" x="0px" y="0px"
	 viewBox="0 0 512 512" style="enable-background:new 0 0 512 512;" xml:space="preserve">
<g>
	<g>
		<g>
			<path fill="currentColor" d="M222.221,412.988h106.163c4.143,0,7.5-3.358,7.5-7.5c0-4.142-3.357-7.5-7.5-7.5H222.221c-4.143,0-7.5,3.358-7.5,7.5
				C214.721,409.63,218.078,412.988,222.221,412.988z"/>
			<path fill="currentColor" d="M222.221,383.867h135.116c4.143,0,7.5-3.358,7.5-7.5c0-4.142-3.357-7.5-7.5-7.5H222.221c-4.143,0-7.5,3.358-7.5,7.5
				C214.721,380.509,218.078,383.867,222.221,383.867z"/>
			<path fill="currentColor" d="M164.313,383.867h19.303c4.143,0,7.5-3.358,7.5-7.5c0-4.142-3.357-7.5-7.5-7.5h-19.303c-4.143,0-7.5,3.358-7.5,7.5
				C156.813,380.509,160.171,383.867,164.313,383.867z"/>
			<path fill="currentColor" d="M426.665,232.969c-4.143,0-7.5,3.358-7.5,7.5V494.5c0,1.378-1.121,2.5-2.5,2.5H97.266c-1.379,0-2.5-1.122-2.5-2.5
				V240.469c0-4.142-3.357-7.5-7.5-7.5s-7.5,3.358-7.5,7.5V494.5c0,9.649,7.851,17.5,17.5,17.5h319.399
				c9.649,0,17.5-7.851,17.5-17.5V240.469C434.165,236.327,430.808,232.969,426.665,232.969z"/>
			<path fill="currentColor" d="M164.313,412.988h19.303c4.143,0,7.5-3.358,7.5-7.5c0-4.142-3.357-7.5-7.5-7.5h-19.303c-4.143,0-7.5,3.358-7.5,7.5
				C156.813,409.63,160.171,412.988,164.313,412.988z"/>
			<path fill="currentColor" d="M125.709,232.968c-4.143,0-7.5,3.358-7.5,7.5v222.969c0,9.649,7.851,17.5,17.5,17.5h1.283
				c4.625,0,9.148-1.881,12.409-5.161l11.052-11.116l11.052,11.116c3.261,3.28,7.784,5.161,12.41,5.161h1.333
				c4.625,0,9.148-1.881,12.409-5.161l11.052-11.116l11.052,11.116c3.262,3.28,7.784,5.161,12.41,5.161h1.333
				c4.625,0,9.147-1.881,12.409-5.161l11.052-11.116l11.052,11.116c3.262,3.28,7.784,5.161,12.41,5.161h1.333
				c4.625,0,9.148-1.881,12.409-5.161l11.052-11.116l11.052,11.116c3.261,3.28,7.784,5.161,12.41,5.161h1.333
				c4.625,0,9.148-1.881,12.409-5.161l11.052-11.116l11.052,11.116c3.261,3.28,7.784,5.161,12.41,5.161h1.282
				c9.649,0,17.5-7.851,17.5-17.5V240.468c0-4.142-3.357-7.5-7.5-7.5s-7.5,3.358-7.5,7.5v70.157H133.209v-70.157
				C133.209,236.326,129.852,232.968,125.709,232.968z M380.711,325.625v137.813c0,1.378-1.121,2.5-2.5,2.5h-1.282
				c-0.661,0-1.307-0.268-1.773-0.737l-16.37-16.465c-1.407-1.416-3.321-2.212-5.318-2.212c-1.997,0-3.911,0.796-5.318,2.212
				l-16.37,16.465c-0.472,0.475-1.102,0.737-1.772,0.737h-1.333c-0.661,0-1.307-0.268-1.773-0.737l-16.37-16.465
				c-1.407-1.416-3.321-2.212-5.318-2.212c-1.997,0-3.911,0.796-5.318,2.212l-16.37,16.465c-0.472,0.475-1.102,0.737-1.772,0.737
				h-1.333c-0.661,0-1.307-0.268-1.773-0.737l-16.37-16.465c-1.407-1.416-3.321-2.212-5.318-2.212c-1.997,0-3.911,0.796-5.318,2.212
				l-16.37,16.465c-0.472,0.475-1.102,0.737-1.772,0.737h-1.333c-0.661,0-1.307-0.268-1.773-0.737l-16.37-16.465
				c-1.407-1.416-3.321-2.212-5.318-2.212c-1.997,0-3.911,0.796-5.318,2.212l-16.37,16.465c-0.472,0.475-1.102,0.737-1.772,0.737
				h-1.333c-0.661,0-1.307-0.268-1.773-0.737l-16.37-16.465c-1.407-1.416-3.321-2.212-5.318-2.212c-1.997,0-3.911,0.796-5.318,2.212
				l-16.37,16.465c-0.472,0.475-1.102,0.737-1.772,0.737h-1.283c-1.379,0-2.5-1.122-2.5-2.5V325.625H380.711z"/>
			<path fill="currentColor" d="M256.965,63.535c4.143,0,7.5-3.358,7.5-7.5V36.621c0-4.142-3.357-7.5-7.5-7.5s-7.5,3.358-7.5,7.5v19.414
				C249.465,60.177,252.822,63.535,256.965,63.535z"/>
			<path fill="currentColor" d="M463.5,204.818h-29.334v-99.955c0-9.649-7.851-17.5-17.5-17.5h-2.386c-4.143,0-7.5,3.358-7.5,7.5
				c0,4.142,3.357,7.5,7.5,7.5h2.386c1.379,0,2.5,1.122,2.5,2.5v99.955h-23.444V95.156c0-9.649-7.851-17.5-17.5-17.5h-12.197
				c-4.143,0-7.5,3.358-7.5,7.5c0,4.142,3.357,7.5,7.5,7.5h12.197c1.379,0,2.5,1.122,2.5,2.5v109.662h-32.726
				c-2.732,0-5.249,1.486-6.568,3.88l-21.188,38.439l-16.104-95.282c-0.523-3.094-2.918-5.536-6.001-6.119
				c-3.089-0.587-6.204,0.814-7.822,3.504l-33.419,55.578h-28.481c-2.528,0-4.885,1.274-6.272,3.388l-9.517,14.517l-15.15-52.291
				c-0.889-3.065-3.618-5.232-6.804-5.402c-3.19-0.173-6.131,1.694-7.341,4.646l-14.396,35.142h-35.724V95.156
				c0-1.378,1.121-2.5,2.5-2.5h30.756v11.621c0,9.649,7.851,17.5,17.5,17.5h146c9.649,0,17.5-7.851,17.5-17.5V85.156
				c0-4.142-3.357-7.5-7.5-7.5h-46.546V26.914C293.419,12.074,281.395,0,266.616,0h-19.303c-14.778,0-26.801,12.074-26.801,26.914
				v50.742h-84.803c-6.852,0-12.796,3.957-15.667,9.707H97.266c-9.649,0-17.5,7.851-17.5,17.5v99.955H48.5
				c-4.143,0-7.5,3.358-7.5,7.5c0,4.142,3.357,7.5,7.5,7.5h125.465c3.044,0,5.786-1.84,6.94-4.657l8.147-19.889l13.699,47.284
				c0.816,2.813,3.194,4.894,6.09,5.33c2.902,0.433,5.781-0.857,7.387-3.305l16.234-24.763h28.672c2.632,0,5.072-1.379,6.428-3.635
				l25.16-41.843l16.31,96.5c0.533,3.145,2.995,5.61,6.141,6.144c0.42,0.071,0.841,0.106,1.257,0.106c2.698,0,5.232-1.46,6.566-3.88
				l29.429-53.392H463.5c4.143,0,7.5-3.358,7.5-7.5C471,208.176,467.643,204.818,463.5,204.818z M181.464,92.656h46.547
				c4.143,0,7.5-3.358,7.5-7.5V26.914c0-6.569,5.294-11.914,11.802-11.914h19.303c6.508,0,11.803,5.345,11.803,11.914v50.742
				h-27.244c-4.143,0-7.5,3.358-7.5,7.5c0,4.142,3.357,7.5,7.5,7.5h81.29v11.621c0,1.378-1.121,2.5-2.5,2.5h-146
				c-1.379,0-2.5-1.122-2.5-2.5h-0.001V92.656z M118.209,204.818H94.766v-99.955c0-1.378,1.121-2.5,2.5-2.5h20.943V204.818z"/>
		</g>
	</g>
</g>
<g>
</g>
<g>
</g>
<g>
</g>
<g>
</g>
<g>
</g>
<g>
</g>
<g>
</g>
<g>
</g>
<g>
</g>
<g>
</g>
<g>
</g>
<g>
</g>
<g>
</g>
<g>
</g>
<g>
</g>
</svg>
