<svg width="18" height="20" viewBox="0 0 18 20" fill="none" xmlns="http://www.w3.org/2000/svg">
<path d="M14 6.66666C14 5.34057 13.4732 4.0688 12.5355 3.13112C11.5979 2.19344 10.3261 1.66666 9 1.66666C7.67392 1.66666 6.40215 2.19344 5.46447 3.13112C4.52678 4.0688 4 5.34057 4 6.66666C4 12.5 1.5 14.1667 1.5 14.1667H16.5C16.5 14.1667 14 12.5 14 6.66666Z" stroke="currentColor" stroke-width="1.5" stroke-linecap="round" stroke-linejoin="round"/>
<path d="M10.4417 17.5C10.2951 17.7526 10.0849 17.9622 9.83184 18.1079C9.57883 18.2537 9.29197 18.3304 8.99999 18.3304C8.708 18.3304 8.42114 18.2537 8.16813 18.1079C7.91512 17.9622 7.70483 17.7526 7.55832 17.5" stroke="currentColor" stroke-width="1.5" stroke-linecap="round" stroke-linejoin="round"/>
</svg>
