<svg width="157" height="120" viewBox="0 0 157 120" fill="none" xmlns="http://www.w3.org/2000/svg">
<g clip-path="url(#clip0)">
<path opacity="0.1" d="M91.2197 21.1629C81.1547 20.7919 71.5609 17.3452 62.4138 13.5751C53.2667 9.8049 44.2005 5.62689 34.3711 3.62912C28.0514 2.34275 20.8239 2.16183 15.7328 5.75568C10.8326 9.21308 9.24978 15.1819 8.39838 20.7198C7.75803 24.8871 7.38653 29.2721 9.13703 33.1741C10.3556 35.8818 12.5181 38.1586 14.0141 40.7528C19.2179 49.7788 15.5391 60.91 9.89881 69.7305C7.25355 73.8702 4.18475 77.809 2.14371 82.2109C0.102661 86.6127 -0.842695 91.6555 0.943942 96.1447C2.71468 100.591 6.93265 103.937 11.5033 106.287C20.7863 111.057 31.7244 112.421 42.3907 113.203C66.0015 114.916 89.7395 114.174 113.412 113.432C122.174 113.156 130.974 112.878 139.592 111.439C144.378 110.64 149.32 109.373 152.795 106.316C157.205 102.434 158.3 95.8626 155.344 90.9947C150.385 82.8318 136.678 80.8034 133.211 72.0426C131.305 67.2206 133.264 61.8483 136.036 57.3759C141.981 47.7826 151.949 39.3652 152.474 28.3982C152.836 20.8655 148.044 13.3236 140.634 9.7589C132.869 6.0194 122.1 6.49163 116.371 12.672C110.472 19.0394 100.105 21.4895 91.2197 21.1629Z" fill="#6C63FF"/>
<path d="M35.0172 111.164C35.0172 111.164 27.067 104.789 25.5651 96.6798C24.956 93.274 23.3224 90.1694 20.9091 87.8317C19.7547 86.732 18.5078 85.7466 17.1841 84.8879" stroke="#535461" stroke-width="2" stroke-miterlimit="10"/>
<path d="M16.2113 79.7792C16.908 80.7789 17.2232 85.0152 17.2232 85.0152C17.2232 85.0152 13.4981 83.4589 12.7999 82.4608C12.4647 81.981 12.3229 81.3796 12.4057 80.7888C12.4885 80.1981 12.7891 79.6665 13.2415 79.3109C13.6939 78.9553 14.2609 78.8048 14.8179 78.8927C15.3748 78.9805 15.876 79.2994 16.2113 79.7792V79.7792Z" fill="#1773BE"/>
<path d="M22.8924 83.1033C22.9647 84.3436 21.061 88.0816 21.061 88.0816C21.061 88.0816 18.7294 84.6257 18.6556 83.3854C18.6276 82.794 18.8204 82.2148 19.1922 81.7732C19.564 81.3315 20.0848 81.0631 20.642 81.026C21.1991 80.9889 21.7475 81.1861 22.1685 81.5749C22.5895 81.9637 22.849 82.5128 22.891 83.1033H22.8924Z" fill="#1773BE"/>
<path d="M29.3682 92.6582C28.842 93.7682 25.4177 95.9761 25.4177 95.9761C25.4177 95.9761 25.0519 91.7444 25.5781 90.6344C25.8371 90.1124 26.279 89.7191 26.8086 89.5391C27.3383 89.3592 27.9134 89.407 28.4101 89.6722C28.9069 89.9375 29.2856 90.399 29.4648 90.9574C29.644 91.5159 29.6093 92.1266 29.3682 92.6582V92.6582Z" fill="#1773BE"/>
<path d="M32.7347 101.054C32.3921 102.242 29.3696 105.031 29.3696 105.031C29.3696 105.031 28.3332 100.927 28.6758 99.7371C28.8404 99.1661 29.2122 98.688 29.7092 98.4078C30.2062 98.1276 30.7878 98.0683 31.3261 98.2429C31.8643 98.4176 32.3151 98.8119 32.5793 99.3391C32.8435 99.8663 32.8994 100.483 32.7347 101.054V101.054Z" fill="#1773BE"/>
<path d="M17.6149 91.0867C18.7713 91.2523 22.427 89.5014 22.427 89.5014C22.427 89.5014 19.3423 86.7906 18.1801 86.625C17.6223 86.5455 17.0576 86.7043 16.6101 87.0665C16.1627 87.4286 15.8692 87.9645 15.7943 88.5561C15.7194 89.1478 15.8691 89.7468 16.2105 90.2214C16.5519 90.696 17.0571 91.0072 17.6149 91.0867V91.0867Z" fill="#1773BE"/>
<path d="M21.6695 100.855C22.8259 100.645 25.8137 97.8159 25.8137 97.8159C25.8137 97.8159 22.1046 96.2092 20.9496 96.4192C20.6731 96.4673 20.4083 96.573 20.1705 96.7302C19.9327 96.8874 19.7266 97.093 19.5641 97.3351C19.4016 97.5773 19.286 97.8511 19.2238 98.1409C19.1616 98.4307 19.1542 98.7307 19.2019 99.0236C19.2496 99.3165 19.3516 99.5964 19.5018 99.8473C19.6521 100.098 19.8477 100.315 20.0774 100.485C20.3071 100.655 20.5663 100.776 20.84 100.839C21.1138 100.903 21.3967 100.908 21.6724 100.855H21.6695Z" fill="#1773BE"/>
<path d="M26.8372 109.777C28.0095 109.777 31.4064 107.524 31.4064 107.524C31.4064 107.524 28.008 105.275 26.8357 105.275C26.273 105.275 25.7332 105.512 25.3353 105.934C24.9373 106.356 24.7137 106.929 24.7137 107.526C24.7137 108.123 24.9373 108.695 25.3353 109.117C25.7332 109.539 26.273 109.777 26.8357 109.777H26.8372Z" fill="#1773BE"/>
<path d="M112.25 56.0252C112.25 56.0252 117.15 46.8182 124.537 44.1658C127.639 43.0732 130.323 40.9433 132.187 38.0958C133.061 36.7344 133.815 35.2907 134.44 33.7828" stroke="#535461" stroke-width="2" stroke-miterlimit="10"/>
<path d="M139.077 32.0963C138.236 32.961 134.32 33.8564 134.32 33.8564C134.32 33.8564 135.281 29.7321 136.123 28.8658C136.529 28.4626 137.068 28.2446 137.624 28.2587C138.18 28.2729 138.709 28.5182 139.096 28.9417C139.483 29.3651 139.699 29.933 139.695 30.523C139.692 31.1131 139.47 31.678 139.077 32.0963Z" fill="#6C63FF"/>
<path d="M136.863 39.5523C135.706 39.7946 131.967 38.289 131.967 38.289C131.967 38.289 134.887 35.3759 136.036 35.1382C136.312 35.0733 136.597 35.0674 136.875 35.1211C137.153 35.1747 137.419 35.2867 137.655 35.4505C137.892 35.6144 138.096 35.8267 138.254 36.0751C138.412 36.3234 138.522 36.6029 138.577 36.8969C138.632 37.1909 138.631 37.4937 138.575 37.7874C138.518 38.0811 138.406 38.3598 138.247 38.6071C138.087 38.8545 137.882 39.0655 137.645 39.2278C137.407 39.3901 137.141 39.5005 136.863 39.5523V39.5523Z" fill="#6C63FF"/>
<path d="M128.803 47.6293C127.695 47.223 125.179 43.9174 125.179 43.9174C125.179 43.9174 129.082 42.9698 130.192 43.3761C130.459 43.47 130.705 43.6191 130.917 43.8148C131.129 44.0105 131.302 44.2489 131.427 44.5162C131.551 44.7835 131.624 45.0743 131.642 45.3718C131.659 45.6693 131.621 45.9675 131.529 46.2492C131.437 46.5308 131.293 46.7903 131.106 47.0125C130.918 47.2347 130.691 47.4153 130.438 47.5437C130.184 47.6721 129.909 47.7457 129.628 47.7604C129.348 47.7751 129.067 47.7305 128.803 47.6293V47.6293Z" fill="#6C63FF"/>
<path d="M121.396 52.2841C120.24 52.0817 117.239 49.2682 117.239 49.2682C117.239 49.2682 120.938 47.6338 122.093 47.8362C122.649 47.9332 123.145 48.2604 123.474 48.7459C123.802 49.2314 123.935 49.8354 123.844 50.425C123.752 51.0147 123.444 51.5416 122.986 51.8899C122.528 52.2383 121.959 52.3795 121.403 52.2825L121.396 52.2841Z" fill="#6C63FF"/>
<path d="M128.702 35.0646C128.7 36.308 130.826 39.9157 130.826 39.9157C130.826 39.9157 132.95 36.3126 132.95 35.0707C132.957 34.7703 132.908 34.4714 132.805 34.1915C132.701 33.9117 132.546 33.6566 132.349 33.4414C132.151 33.2261 131.914 33.055 131.653 32.9382C131.392 32.8214 131.112 32.7612 130.829 32.7612C130.545 32.7612 130.265 32.8214 130.004 32.9382C129.743 33.055 129.506 33.2261 129.309 33.4414C129.111 33.6566 128.956 33.9117 128.853 34.1915C128.749 34.4714 128.7 34.7703 128.707 35.0707L128.702 35.0646Z" fill="#6C63FF"/>
<path d="M120.111 40.624C120.461 41.8107 123.502 44.5782 123.502 44.5782C123.502 44.5782 124.514 40.4661 124.161 39.2794C123.978 38.7296 123.601 38.2765 123.11 38.0156C122.618 37.7546 122.05 37.7062 121.526 37.8805C121.001 38.0547 120.561 38.4381 120.298 38.9498C120.034 39.4616 119.968 40.0618 120.114 40.624H120.111Z" fill="#6C63FF"/>
<path d="M112.469 47.2429C112.625 48.4695 115.18 51.746 115.18 51.746C115.18 51.746 116.83 47.8746 116.674 46.6434C116.643 46.3451 116.556 46.0564 116.418 45.7942C116.28 45.5321 116.095 45.3018 115.872 45.1169C115.649 44.932 115.393 44.7963 115.12 44.7177C114.847 44.639 114.562 44.6191 114.282 44.6591C114.001 44.6991 113.731 44.7981 113.487 44.9504C113.244 45.1027 113.031 45.3052 112.862 45.546C112.693 45.7867 112.571 46.0609 112.504 46.3523C112.436 46.6437 112.424 46.9465 112.469 47.2429V47.2429Z" fill="#6C63FF"/>
<path opacity="0.25" d="M139.077 32.0963C138.236 32.961 134.32 33.8564 134.32 33.8564C134.32 33.8564 135.281 29.7321 136.123 28.8658C136.529 28.4626 137.068 28.2446 137.624 28.2587C138.18 28.2729 138.709 28.5182 139.096 28.9417C139.483 29.3651 139.699 29.933 139.695 30.523C139.692 31.1131 139.47 31.678 139.077 32.0963Z" fill="#1773BE"/>
<path opacity="0.25" d="M136.863 39.5523C135.706 39.7946 131.967 38.289 131.967 38.289C131.967 38.289 134.887 35.3759 136.036 35.1382C136.312 35.0733 136.597 35.0674 136.875 35.1211C137.153 35.1747 137.419 35.2867 137.655 35.4505C137.892 35.6144 138.096 35.8267 138.254 36.0751C138.412 36.3234 138.522 36.6029 138.577 36.8969C138.632 37.1909 138.631 37.4937 138.575 37.7874C138.518 38.0811 138.406 38.3598 138.247 38.6071C138.087 38.8545 137.882 39.0655 137.645 39.2278C137.407 39.3901 137.141 39.5005 136.863 39.5523V39.5523Z" fill="#1773BE"/>
<path opacity="0.25" d="M128.803 47.6293C127.695 47.223 125.179 43.9174 125.179 43.9174C125.179 43.9174 129.082 42.9698 130.192 43.3761C130.459 43.47 130.705 43.6191 130.917 43.8148C131.129 44.0105 131.302 44.2489 131.427 44.5162C131.551 44.7835 131.624 45.0743 131.642 45.3718C131.659 45.6693 131.621 45.9675 131.529 46.2492C131.437 46.5308 131.293 46.7903 131.106 47.0125C130.918 47.2347 130.691 47.4153 130.438 47.5437C130.184 47.6721 129.909 47.7457 129.628 47.7604C129.348 47.7751 129.067 47.7305 128.803 47.6293V47.6293Z" fill="#1773BE"/>
<path opacity="0.25" d="M121.396 52.2841C120.24 52.0817 117.239 49.2682 117.239 49.2682C117.239 49.2682 120.938 47.6338 122.093 47.8362C122.649 47.9332 123.145 48.2604 123.474 48.7459C123.802 49.2314 123.935 49.8354 123.844 50.425C123.752 51.0147 123.444 51.5416 122.986 51.8899C122.528 52.2383 121.959 52.3795 121.403 52.2825L121.396 52.2841Z" fill="black"/>
<path opacity="0.25" d="M128.702 35.0646C128.7 36.308 130.826 39.9157 130.826 39.9157C130.826 39.9157 132.95 36.3126 132.95 35.0707C132.957 34.7703 132.908 34.4714 132.805 34.1915C132.701 33.9117 132.546 33.6566 132.349 33.4414C132.151 33.2261 131.914 33.055 131.653 32.9382C131.392 32.8214 131.112 32.7612 130.829 32.7612C130.545 32.7612 130.265 32.8214 130.004 32.9382C129.743 33.055 129.506 33.2261 129.309 33.4414C129.111 33.6566 128.956 33.9117 128.853 34.1915C128.749 34.4714 128.7 34.7703 128.707 35.0707L128.702 35.0646Z" fill="#1773BE"/>
<path opacity="0.25" d="M120.111 40.624C120.461 41.8107 123.502 44.5782 123.502 44.5782C123.502 44.5782 124.514 40.4661 124.161 39.2794C123.978 38.7296 123.601 38.2765 123.11 38.0156C122.618 37.7546 122.05 37.7062 121.526 37.8805C121.001 38.0547 120.561 38.4381 120.298 38.9498C120.034 39.4616 119.968 40.0618 120.114 40.624H120.111Z" fill="black"/>
<path opacity="0.25" d="M112.469 47.2429C112.625 48.4695 115.18 51.746 115.18 51.746C115.18 51.746 116.83 47.8746 116.674 46.6434C116.643 46.3451 116.556 46.0564 116.418 45.7942C116.28 45.5321 116.095 45.3018 115.872 45.1169C115.649 44.932 115.393 44.7963 115.12 44.7177C114.847 44.639 114.562 44.6191 114.282 44.6591C114.001 44.6991 113.731 44.7981 113.487 44.9504C113.244 45.1027 113.031 45.3052 112.862 45.546C112.693 45.7867 112.571 46.0609 112.504 46.3523C112.436 46.6437 112.424 46.9465 112.469 47.2429V47.2429Z" fill="black"/>
<path d="M112.532 55.8427C112.532 55.8427 113.495 45.3187 119.228 39.7225C121.646 37.3902 123.286 34.2894 123.902 30.885C124.183 29.2666 124.323 27.6243 124.32 25.9788" stroke="#535461" stroke-width="2" stroke-miterlimit="10"/>
<path d="M127.914 22.4279C127.48 23.5808 124.236 26.083 124.236 26.083C124.236 26.083 123.54 21.8989 123.978 20.7459C124.188 20.1923 124.598 19.7502 125.116 19.5168C125.634 19.2835 126.219 19.2781 126.741 19.5017C127.263 19.7254 127.679 20.1598 127.899 20.7094C128.119 21.259 128.125 21.8788 127.914 22.4325V22.4279Z" fill="#1773BE"/>
<path d="M128.739 30.2043C127.781 30.9188 123.781 31.1534 123.781 31.1534C123.781 31.1534 125.339 27.2375 126.298 26.5231C126.525 26.3426 126.784 26.2124 127.06 26.1401C127.335 26.0678 127.622 26.0549 127.902 26.1022C128.182 26.1494 128.451 26.2558 128.692 26.4151C128.933 26.5745 129.141 26.7834 129.304 27.0297C129.468 27.2759 129.583 27.5544 129.643 27.8487C129.703 28.143 129.707 28.4471 129.654 28.743C129.601 29.0389 129.493 29.3205 129.336 29.5713C129.179 29.822 128.976 30.0368 128.739 30.2028V30.2043Z" fill="#1773BE"/>
<path d="M124.452 41.0563C123.284 41.1606 119.719 39.2165 119.719 39.2165C119.719 39.2165 122.928 36.6714 124.096 36.5671C124.657 36.5171 125.214 36.7054 125.644 37.0907C126.074 37.476 126.342 38.0267 126.389 38.6216C126.436 39.2165 126.258 39.8069 125.895 40.2629C125.532 40.719 125.013 41.0032 124.452 41.0533V41.0563Z" fill="#1773BE"/>
<path d="M119.463 48.4909C118.329 48.7976 114.507 47.5296 114.507 47.5296C114.507 47.5296 117.263 44.4463 118.398 44.1335C118.943 43.9837 119.521 44.0695 120.006 44.3721C120.492 44.6748 120.843 45.1694 120.985 45.7472C121.126 46.3251 121.045 46.9387 120.76 47.4533C120.474 47.9678 120.008 48.3411 119.463 48.4909V48.4909Z" fill="#6C63FF"/>
<path d="M119.564 29.6094C120.039 30.7455 123.355 33.1358 123.355 33.1358C123.355 33.1358 123.918 28.9287 123.444 27.7926C123.208 27.261 122.785 26.8486 122.266 26.6433C121.747 26.4381 121.173 26.4563 120.666 26.6942C120.159 26.932 119.761 27.3706 119.555 27.9162C119.349 28.4618 119.352 29.0711 119.564 29.614V29.6094Z" fill="#1773BE"/>
<path d="M113.835 38.3825C114.608 39.3162 118.444 40.5397 118.444 40.5397C118.444 40.5397 117.797 36.3464 117.023 35.4126C116.841 35.1858 116.618 34.9997 116.367 34.8652C116.116 34.7306 115.842 34.6503 115.562 34.6289C115.281 34.6075 115 34.6454 114.733 34.7405C114.467 34.8355 114.221 34.9858 114.009 35.1826C113.798 35.3793 113.626 35.6187 113.502 35.8867C113.379 36.1547 113.307 36.446 113.291 36.7438C113.275 37.0415 113.314 37.3397 113.408 37.621C113.501 37.9023 113.646 38.1611 113.835 38.3825V38.3825Z" fill="#6C63FF"/>
<path d="M109.369 47.7228C109.982 48.7807 113.569 50.6742 113.569 50.6742C113.569 50.6742 113.599 46.4257 112.99 45.3662C112.687 44.877 112.217 44.5323 111.678 44.405C111.14 44.2777 110.575 44.378 110.105 44.6845C109.635 44.9911 109.296 45.4797 109.16 46.0469C109.024 46.6141 109.102 47.2152 109.377 47.7228H109.369Z" fill="#6C63FF"/>
<path d="M105.16 14.6284C105.4 13.6947 105.689 12.7563 105.892 11.8103C105.649 12.7563 105.358 13.6977 105.16 14.6284Z" fill="url(#paint0_linear)"/>
<path d="M104.085 23.6221C104.064 23.5853 104.05 23.5485 104.034 23.5148C104.034 23.4994 104.02 23.4872 104.014 23.4718C103.982 23.4876 103.95 23.5014 103.917 23.5132C103.853 23.5393 103.788 23.5638 103.722 23.5838C103.655 23.6037 103.628 23.6144 103.577 23.6267C103.535 23.642 103.492 23.6538 103.449 23.6619L103.46 23.6895C103.514 23.6773 103.566 23.6665 103.619 23.6512L103.634 23.8413C103.694 23.8413 103.751 23.8321 103.806 23.8321C103.832 23.8306 103.858 23.8306 103.884 23.8321C103.997 23.8321 104.095 23.8321 104.173 23.8321C104.143 23.7631 104.111 23.6911 104.085 23.6221ZM133.428 73.1648C132.749 72.1943 131.393 61.7776 131.393 61.7776C131.393 61.7776 128.726 54.3707 129.453 51.4146C130.18 48.4586 127.467 40.8953 127.467 40.8953C127.467 40.8953 125.675 40.0689 125.578 38.8423C125.578 38.8423 118.259 36.3891 117.917 34.5493C117.639 33.0406 113.1 31.9582 111.47 31.6163C110.973 29.4882 110.472 27.5026 110.104 26.4187C110.004 26.0814 109.91 25.79 109.823 25.5601C109.2 23.8735 107.275 23.7202 105.879 23.8551C105.818 23.5677 105.706 23.2954 105.548 23.0533C105.524 22.97 105.479 22.8959 105.416 22.8401C105.386 22.8131 105.354 22.7885 105.321 22.7666C105.295 22.7169 105.262 22.6722 105.222 22.6347C105.183 22.5968 105.139 22.5639 105.092 22.5366C105.059 22.5173 105.024 22.5004 104.988 22.486C104.904 22.4521 104.818 22.427 104.729 22.4108C104.626 22.3884 104.522 22.374 104.417 22.3679C104.672 22.2495 104.9 22.0731 105.084 21.8512C105.209 21.6954 105.302 21.5137 105.357 21.3177C105.403 21.1546 105.423 20.9848 105.417 20.8148C105.38 20.8848 105.336 20.951 105.287 21.0126C105.348 20.3333 105.01 19.6434 104.816 18.9672C104.581 18.087 104.538 17.1618 104.689 16.2611C104.883 14.9027 105.363 13.5289 105.688 12.146C105.689 12.1383 105.689 12.1306 105.688 12.123C105.858 11.4362 105.964 10.733 106.003 10.024C106.059 8.59353 105.714 7.16611 105.159 5.86288C104.666 4.70837 103.939 3.57226 102.826 3.1031C101.999 2.74893 101.072 2.80565 100.182 2.74739C98.1842 2.61554 96.279 1.87039 94.3796 1.19271C92.4802 0.515034 90.5259 -0.101317 88.5268 0.01674C86.5277 0.134797 84.4707 1.15745 83.5586 3.0341C83.2695 3.61979 83.1033 4.27141 82.7578 4.82183C82.1102 5.85981 80.9509 6.37957 79.9839 7.09558C79.0168 7.81159 78.1654 8.82811 77.8156 10.0409C77.6246 10.6943 77.5977 11.3893 77.7376 12.0571V12.0571C77.769 12.2079 77.8096 12.3564 77.859 12.5017C77.9962 12.9068 78.2102 13.2778 78.4878 13.5918C78.6972 13.8239 78.9378 14.0218 79.2019 14.179V14.179C79.5335 14.374 79.8884 14.5205 80.2571 14.6145C80.2441 14.6605 80.2311 14.7095 80.2166 14.757C80.1935 14.8352 80.1732 14.9104 80.1516 14.9947C80.1038 15.1833 80.059 15.3749 80.0215 15.5681C80.02 15.5819 80.02 15.5958 80.0215 15.6095C79.8439 16.4816 79.7547 17.3713 79.7555 18.2635C79.7552 18.6855 79.7755 19.1071 79.8162 19.5269V19.5269C80.3944 25.7487 85.2368 30.6565 91.2197 30.9754C91.425 30.9861 91.6317 30.9922 91.8413 30.9922C91.9367 30.9922 92.0307 30.9922 92.1304 30.9922C92.2244 31.1241 92.3169 31.259 92.4051 31.3909C92.4932 31.5227 92.5742 31.6577 92.6508 31.7895L92.4412 31.5595L92.2316 31.3556C92.1748 31.4383 92.1114 31.5158 92.0422 31.5871C91.9056 31.5361 91.766 31.4941 91.6245 31.4614V31.4614C91.0246 31.3203 90.111 31.2682 88.9084 31.6531C87.8026 32.0042 86.451 32.7263 84.8697 34.0985L77.1637 39.0048L72.9949 41.6941L71.493 45.5884C71.493 45.5884 70.3641 50.2157 69.1079 55.5175C69.0588 55.5328 69.0111 55.5482 68.9634 55.5666C68.8616 55.5543 68.7593 55.5481 68.6569 55.5482C67.9281 55.5464 67.227 55.8442 66.7009 56.3791C66.1747 56.914 65.8645 57.6444 65.8353 58.4168C63.3375 61.6366 63.1958 64.8563 63.7827 66.3343C63.8359 66.4728 63.9027 66.6049 63.9822 66.7284C64.3667 67.3171 65.0851 68.835 65.8136 70.4525C65.7948 70.5859 65.7833 70.6979 65.7775 70.7822C65.7762 70.8098 65.7762 70.8374 65.7775 70.865C65.7775 70.865 66.2111 77.812 64.7656 79.8036C64.4491 80.2375 64.4968 80.8079 64.7656 81.4395C65.7341 83.7118 69.5633 86.746 69.5633 86.746C69.5633 86.746 74.1556 86.7199 76.7142 86.424C76.7069 86.6969 76.7011 86.9683 76.6954 87.2336C76.6375 89.9136 76.6375 92.1598 76.6375 92.1598L76.5421 94.9701C76.5421 94.9701 75.6748 100.893 75.2412 102.526C74.968 103.55 75.2831 113.033 75.5578 120.004H120.805C121.337 115.88 120.587 103.349 120.587 103.349C120.587 103.349 119.874 100.109 119.848 97.2853C119.846 97.2822 119.846 97.2788 119.846 97.2753C119.846 97.2719 119.846 97.2685 119.848 97.2654C119.848 97.0185 119.848 96.7778 119.857 96.5417L120.185 96.5294L120.774 96.508H120.828C120.828 96.508 120.842 96.4497 120.876 96.3546C120.954 96.1178 121.06 95.8927 121.192 95.6846C121.444 95.2906 121.837 94.9042 122.428 94.8781C122.755 94.8643 123.261 94.5838 123.832 94.1698C123.835 94.1707 123.839 94.1707 123.843 94.1698C125.38 93.0674 127.411 91.0328 127.904 90.6986C128.582 90.2386 131.828 87.1722 131.828 87.1722C131.828 87.1722 132.312 86.5221 132.828 85.7387L132.847 85.7111C133.489 84.7298 134.171 83.5569 134.004 83.1874C133.715 82.5251 134.197 80.9412 134.197 80.9412C135.705 78.0143 134.108 74.1353 133.428 73.1648ZM105.477 26.0062C105.491 26.052 105.499 26.0993 105.503 26.1473C105.467 26.0967 105.43 26.043 105.394 25.994L105.36 25.9449L105.335 25.9081L105.39 25.8284C105.39 25.8284 105.39 25.8284 105.39 25.8391C105.428 25.8888 105.458 25.9454 105.477 26.0062V26.0062ZM104.991 24.6478C104.833 24.6815 104.709 24.7122 104.628 24.7352C104.526 24.542 104.427 24.3488 104.339 24.1526C104.571 24.2952 104.789 24.461 104.991 24.6478V24.6478ZM104.719 24.8901C104.719 24.887 104.719 24.8839 104.719 24.8809L104.731 24.8901C104.79 24.9314 104.848 24.9713 104.901 25.0127C104.949 25.0495 104.992 25.0848 105.036 25.1216C105.007 25.1752 104.975 25.2304 104.943 25.2749C104.893 25.1906 104.845 25.1093 104.799 25.025C104.77 24.9912 104.744 24.9452 104.719 24.8901ZM103.852 22.9981C104.131 22.9688 104.413 22.9688 104.692 22.9981V22.9981C104.731 22.9981 104.766 23.0057 104.8 23.0119C104.879 23.0247 104.956 23.0458 105.03 23.0747C105.201 23.3282 105.306 23.6248 105.335 23.9349L105.257 23.9471L105.18 23.9625C105.036 23.9885 104.891 24.0146 104.779 24.0391L104.634 24.0713C104.442 24.1158 104.33 24.1495 104.326 24.151C104.307 24.1096 104.289 24.0713 104.268 24.0315C104.236 23.9655 104.203 23.8981 104.174 23.8321C104.145 23.7662 104.108 23.6911 104.077 23.6221C104.057 23.5853 104.043 23.5485 104.027 23.5148C104.027 23.4994 104.012 23.4872 104.007 23.4718C103.998 23.4556 103.991 23.4387 103.985 23.4212C103.897 23.2311 103.816 23.041 103.738 22.8539C103.729 22.8355 103.722 22.8156 103.715 22.7972L103.825 22.7896V22.8294L103.852 22.9981ZM69.3638 118.109C69.3522 115.826 69.1961 113.356 68.7625 111.038C68.5774 110.052 68.3866 109.067 68.1929 108.098C68.1438 107.855 68.0961 107.616 68.0484 107.377L67.6032 107.44H67.5627C66.3485 101.367 65.0793 96.0158 65.0793 96.0158C65.0793 96.0158 62.5584 85.8061 62.8504 84.992C62.8879 84.8862 62.8402 84.601 62.7333 84.1825C62.1233 81.8612 59.5763 75.4646 58.6859 73.2782C58.6859 73.269 58.6786 73.2583 58.6758 73.2506C58.5312 72.8842 58.4271 72.6374 58.3953 72.5653L58.6049 69.3026L58.6165 69.1064L58.644 68.6893L58.6324 68.6786L58.644 68.4854C58.644 68.4854 56.4439 66.572 52.7174 65.1906C52.5729 65.1354 52.4196 65.0817 52.2679 65.0296C52.4543 63.7095 52.7015 62.2192 53.0239 60.7672C53.0542 60.6216 53.0875 60.4805 53.1221 60.3379C53.1525 60.1953 53.1872 60.0574 53.2219 59.9178C53.2768 59.6909 53.3361 59.4671 53.3968 59.2463C53.5977 59.1788 53.7958 59.1037 53.9909 59.024L54.0661 58.9933C56.47 58.0011 58.4537 56.1186 59.6496 53.6943C60.8456 51.27 61.1728 48.4682 60.5708 45.8077V45.8077C60.2275 44.2988 59.5937 42.8815 58.709 41.645C58.6425 41.5499 58.5717 41.4549 58.5009 41.3614C58.43 41.2678 58.3447 41.1636 58.2652 41.0685C58.683 40.0612 59.1759 39.1029 59.2164 38.1232C59.2236 37.9991 59.2236 37.8747 59.2164 37.7506V37.7353C59.1629 37.1052 58.8998 36.4673 58.2869 35.7973C57.3922 34.8145 56.1187 34.3162 54.8452 34.0771C53.5717 33.8379 52.2736 33.8317 50.9929 33.6708C48.8695 33.4009 46.801 32.7064 44.6775 32.4933C42.062 32.2364 39.4287 32.7122 37.041 33.8731C35.461 34.6398 33.8609 35.9798 33.7655 37.8181C33.6874 39.3375 34.6848 40.7941 34.4333 42.2951C34.1832 43.77 32.7666 44.9307 32.8909 46.4225C32.9386 47.0051 33.2205 47.5264 33.5732 47.991C33.6946 48.1443 33.8233 48.2976 33.9563 48.4509C34.4709 49.029 35.0375 49.584 35.3252 50.3123C35.3367 50.3429 35.3483 50.3736 35.3584 50.4042C35.6027 51.1233 35.4928 52.0325 34.8886 52.445C34.892 52.4477 34.8945 52.4514 34.8958 52.4557V52.4557C34.9045 52.468 34.9132 52.4772 34.9204 52.4894C34.9213 52.4869 34.9213 52.4842 34.9204 52.4817C35.1346 52.7511 35.4234 52.9421 35.7458 53.0276L35.8687 53.0674C35.7689 53.1824 35.675 53.302 35.5796 53.4277L35.5174 53.5151C35.3581 53.7423 35.2132 53.9805 35.0838 54.2281C35.01 54.3661 34.9392 54.5041 34.8799 54.642C34.6818 55.0627 34.5383 55.5098 34.4535 55.9713C34.2988 56.9863 34.5171 58.0442 34.2829 59.0378C33.9938 60.2643 33.0788 61.2057 32.5628 62.3449C31.5856 64.4914 32.1393 67.0105 32.3359 69.3808C32.6033 72.6006 32.1696 75.8341 31.7374 79.0324C31.5081 80.7332 31.2787 82.4356 31.0494 84.1395C30.4712 88.4162 29.893 92.6928 29.3148 96.9695C29.1037 98.5364 28.8536 100.189 27.8693 101.399H27.8794C27.8794 101.399 27.8794 101.408 27.8693 101.411C28.1648 101.548 28.479 101.634 28.8002 101.666V101.666C30.0852 101.802 31.4469 101.143 32.6033 100.422C33.5191 99.861 34.3864 99.215 35.1951 98.4919C35.0765 98.9519 34.9493 99.4533 34.8134 99.993C34.8139 99.9981 34.8139 100.003 34.8134 100.008V100.008C33.1815 106.601 30.5564 118.687 30.5564 118.687C30.5564 118.687 30.3179 119.213 30.0086 119.997H70.7717C70.2947 119.383 69.8509 118.796 69.504 118.323L69.3638 118.109ZM39.1817 57.1488C39.1919 57.1305 39.1991 57.1136 39.2092 57.0967C39.2092 57.1458 39.2092 57.1933 39.2092 57.2393C39.2092 57.2853 39.2092 57.3267 39.2092 57.3696C39.2092 57.4126 39.2092 57.408 39.2092 57.4294C39.2092 57.4509 39.2092 57.4294 39.2092 57.4294C39.2092 57.4923 39.1962 57.5552 39.1861 57.618C39.1861 57.618 39.1861 57.6257 39.1861 57.6318L39.3306 57.6885L39.4983 57.7621C40.489 58.1771 41.4921 58.5528 42.5078 58.889C42.6119 58.9243 42.7174 58.958 42.823 58.9902L42.8446 59.1804C42.8707 59.3751 42.8952 59.5729 42.9184 59.7706C42.9184 59.7706 42.9184 59.7798 42.9184 59.786C42.9834 60.3333 43.047 60.8792 43.1034 61.4127C43.1034 61.4127 40.4494 60.3395 40.4827 61.9693C40.4812 61.9984 40.4812 62.0276 40.4827 62.0567C40.4798 62.0954 40.4798 62.1344 40.4827 62.1732C40.5073 63.4427 40.8817 64.1955 40.9568 64.5819C40.9523 64.5979 40.9444 64.6126 40.9337 64.6248C40.8696 64.7728 40.8475 64.9374 40.8701 65.0986C40.8676 65.3728 40.8879 65.6468 40.9308 65.9173C40.8527 65.9679 40.7761 66.0185 40.6995 66.0706C40.6417 66.1089 40.5868 66.1519 40.5304 66.1948C40.1758 64.8901 39.7119 63.6217 39.1442 62.4047C38.7466 61.5369 38.3 60.6323 38.3043 59.6802C38.3043 59.6189 38.3043 59.556 38.3116 59.4931C38.3277 59.2172 38.3772 58.9446 38.459 58.6821C38.4922 58.5824 38.5284 58.4843 38.5689 58.3877C38.6633 58.1582 38.769 57.934 38.8854 57.7161C38.9606 57.572 39.0401 57.4294 39.1167 57.2853C39.1413 57.2424 39.1644 57.1979 39.1875 57.155L39.1817 57.1488ZM104.085 23.6221C104.064 23.5853 104.05 23.5485 104.034 23.5148C104.034 23.4994 104.02 23.4872 104.014 23.4718C103.982 23.4876 103.95 23.5014 103.917 23.5132C103.853 23.5393 103.788 23.5638 103.722 23.5838C103.655 23.6037 103.628 23.6144 103.577 23.6267L103.449 23.6619L103.46 23.6895C103.514 23.6773 103.566 23.6665 103.619 23.6512L103.634 23.8413C103.694 23.8413 103.751 23.8321 103.806 23.8321H103.884C103.997 23.8321 104.095 23.8321 104.173 23.8321C104.143 23.7631 104.111 23.6911 104.085 23.6221Z" fill="url(#paint1_linear)"/>
<path d="M72.5005 46.1421L71.6332 46.5484C71.6332 46.5484 65.9799 69.844 65.9799 71.7268C65.9799 73.6096 77.9674 84.0861 77.9674 84.0861L79.8379 70.695C79.8379 70.695 77.1521 39.9862 72.5005 46.1421Z" fill="#E8F5FF"/>
<path d="M98.7956 38.732L93.7869 35.96C93.5064 34.6914 93.0086 33.4884 92.3183 32.4106C91.5854 31.2883 90.6112 30.1859 89.397 29.6109C86.3282 28.1513 102.378 20.4898 102.378 20.4898C102.63 21.4102 102.928 22.316 103.269 23.2036C104.096 25.3685 105.468 28.1682 107.236 28.9654C110.241 30.3223 98.7956 38.732 98.7956 38.732Z" fill="#FFC1C7"/>
<path opacity="0.1" d="M103.269 23.2036C102.584 25.7618 101.158 28.0268 99.1926 29.6788C97.2276 31.3309 94.823 32.2864 92.3183 32.4106C91.5854 31.2883 90.6112 30.1859 89.397 29.6109C86.3282 28.1513 102.378 20.4898 102.378 20.4898C102.63 21.4102 102.928 22.316 103.269 23.2036V23.2036Z" fill="black"/>
<path d="M103.72 19.3354C103.721 21.8443 103.02 24.297 101.706 26.3834C100.393 28.4697 98.525 30.096 96.3398 31.0564C94.1546 32.0169 91.75 32.2684 89.43 31.7792C87.11 31.29 84.9789 30.0821 83.3062 28.3081C81.6335 26.5342 80.4944 24.2739 80.0329 21.8132C79.5714 19.3525 79.8083 16.8019 80.7135 14.484C81.6188 12.1661 83.1518 10.185 85.1186 8.79131C87.0855 7.39759 89.3978 6.65385 91.7632 6.65416C93.3354 6.64644 94.8934 6.96918 96.3473 7.60372C97.8012 8.23826 99.1222 9.17203 100.234 10.3511C101.346 11.5302 102.226 12.9312 102.825 14.4733C103.423 16.0153 103.727 17.6678 103.72 19.3354V19.3354Z" fill="#FFC1C7"/>
<path d="M105.446 37.1038L102.185 45.1746L99.3087 50.5316H90.1009L87.4152 43.2075L88.5036 35.612H95.536L100.076 35.3406L101.61 34.7978L102.599 35.3927L105.446 37.1038Z" fill="#575A89"/>
<path opacity="0.1" d="M104.323 26.3452C104.323 26.3452 106.357 26.8052 104.536 28.389C102.714 29.9728 96.4308 35.0094 96.4308 35.0094C96.4308 35.0094 98.6381 37.0945 98.1813 39.5369L105.494 35.2133L106.795 28.2954C106.795 28.2954 106.941 26.2164 104.323 26.3452Z" fill="black"/>
<path opacity="0.1" d="M97.8689 35.0094L93.2173 35.8236C93.2173 35.8236 94.1772 39.5876 93.6973 40.6563C93.6828 40.6895 93.6707 40.7238 93.6611 40.759L91.7632 46.2004L93.1855 50.4734L98.1089 43.3516L96.4307 40.6563C96.4307 40.6563 98.2043 38.1632 99.2595 37.2985C100.315 36.4338 97.8689 35.0094 97.8689 35.0094Z" fill="black"/>
<path d="M97.8689 34.7994L93.2173 35.612C93.2173 35.612 94.1772 39.376 93.6973 40.4447C93.6828 40.4779 93.6707 40.5122 93.6611 40.5474L91.7632 45.9888L93.1855 50.2618L98.1089 43.1355L96.4307 40.4401C96.4307 40.4401 98.2043 37.9471 99.2595 37.0823C100.315 36.2176 97.8689 34.7994 97.8689 34.7994Z" fill="#DCE6F2"/>
<path d="M104.518 25.9389C104.518 25.9389 106.552 26.3989 104.729 27.9827C102.907 29.5665 96.4308 35.0094 96.4308 35.0094C96.4308 35.0094 98.8289 36.6883 98.3735 39.1291L105.686 34.807L106.987 27.8892C106.987 27.8892 107.132 25.8101 104.518 25.9389Z" fill="#575A89"/>
<path opacity="0.1" d="M92.6378 32.8905C92.6378 32.8905 93.0815 33.7706 95.0402 35.3574C95.0402 35.3574 91.7791 37.1973 93.0266 39.7838L88.0382 38.4039L87.2706 35.8603L92.6378 32.8905Z" fill="black"/>
<path d="M92.4455 32.6881C92.4455 32.6881 92.8893 33.5682 94.8479 35.155C94.8479 35.155 91.5869 36.9857 92.8344 39.5799L87.8474 38.2L87.0798 35.6579L92.4455 32.6881Z" fill="#575A89"/>
<path opacity="0.1" d="M105.446 37.1038L102.185 45.1747L99.3145 50.5317H90.1009L87.4152 43.2075L88.5022 35.612H90.4579C90.4261 37.3844 91.0361 39.4665 90.9971 40.2408C90.9306 41.5133 92.7866 48.3791 92.7866 48.3791C92.7866 48.3791 96.6707 41.7157 98.2044 41.1224C99.1685 40.7498 101.211 37.6496 102.597 35.3928L105.446 37.1038Z" fill="black"/>
<path d="M118.292 79.5753L117.961 80.0169C117.961 80.0169 120.36 92.7839 119.696 95.6832C119.583 96.2058 119.519 96.7388 119.504 97.2747V97.2977C119.387 100.248 120.227 104.076 120.227 104.076C120.227 104.076 120.897 115.36 120.516 120.002H75.6155C75.3525 113.139 75.0691 104.248 75.3264 103.262C75.7601 101.635 76.6274 95.7338 76.6274 95.7338L76.7228 92.9372C76.7228 92.9372 76.7228 90.2342 76.8009 87.223C76.8341 85.8691 76.8832 84.4478 76.9541 83.1875C77.0451 81.6022 77.1724 80.2668 77.3473 79.6106C77.455 79.1132 77.517 78.6058 77.5323 78.0957C77.5323 78.0482 77.5323 77.9992 77.5409 77.9501C77.5409 77.7968 77.5554 77.6312 77.5612 77.461C77.5612 77.4135 77.5612 77.3659 77.5612 77.3077C77.5887 76.3203 77.5785 75.1489 77.5482 73.9346C77.5482 73.8687 77.5482 73.8012 77.5482 73.7338C77.5236 72.823 77.4875 71.8939 77.447 71.0108C77.3212 68.251 77.1579 65.9174 77.1579 65.9174L71.6433 46.5376L73.1293 42.6555L77.2533 39.9755L84.8783 35.0922C88.5976 31.8494 91.0463 32.2389 91.9801 32.5946C92.0707 32.6274 92.1595 32.6658 92.246 32.7096C92.2749 32.7249 92.2981 32.7372 92.3197 32.751C92.3494 32.7659 92.378 32.7833 92.405 32.8031V32.8031C92.1493 32.9336 91.9272 33.1277 91.7574 33.3688C91.5662 33.6433 91.43 33.9564 91.357 34.2888C91.3082 34.4948 91.2739 34.7044 91.2544 34.9159C91.2356 35.1382 91.2284 35.3682 91.2284 35.5997C91.2387 36.1074 91.2797 36.6139 91.3513 37.116C91.3513 37.1252 91.3513 37.1375 91.3513 37.1497C91.399 37.5085 91.4582 37.8596 91.516 38.1893C91.5154 38.1949 91.5154 38.2005 91.516 38.2061C91.5825 38.591 91.649 38.9467 91.6938 39.2533C91.7025 39.3085 91.7097 39.3591 91.717 39.4066C91.7488 39.6093 91.7638 39.8145 91.7618 40.0199C91.7781 40.516 91.841 41.009 91.9497 41.4918C91.9873 41.6942 92.0306 41.9104 92.0783 42.1358C92.1434 42.4424 92.2142 42.7766 92.2908 43.117C92.3327 43.3041 92.3776 43.4972 92.4238 43.6889C92.4412 43.7656 92.46 43.8422 92.4773 43.9204L92.5062 44.0415C92.8141 45.3402 93.148 46.6327 93.3533 47.4146C93.4747 47.8746 93.5513 48.1582 93.5513 48.1582C93.5513 48.1582 95.7282 44.4248 97.4657 42.2998C97.4917 42.2691 97.5149 42.24 97.5394 42.2124C97.7115 42.0024 97.8806 41.8107 98.0425 41.6421C98.3966 41.268 98.7146 41.0012 98.9705 40.9031C99.025 40.8818 99.0777 40.8557 99.1281 40.8249C99.8392 40.3971 100.987 38.8439 102.061 37.2172C102.166 37.0639 102.269 36.8968 102.373 36.7388C102.612 36.3739 102.843 36.0075 103.061 35.6564C103.229 35.3881 103.389 35.1274 103.541 34.8791C104.264 33.6862 104.773 32.797 104.773 32.797L105.776 32.7494L105.951 32.7402H106.068L110.623 32.5164C110.623 32.5164 110.819 32.5516 111.143 32.6206C111.16 32.6206 111.178 32.6206 111.197 32.6329C112.813 32.9733 117.302 34.0511 117.577 35.546C117.912 37.3767 125.154 39.8191 125.154 39.8191C125.25 41.0456 127.023 41.8536 127.023 41.8536C127.023 41.8536 129.709 49.3817 128.991 52.3316C128.281 55.2447 130.838 62.4508 130.906 62.6532L130.416 63.3094L118.292 79.5753Z" fill="#E8F5FF"/>
<path opacity="0.1" d="M104.322 25.8101C104.322 25.8101 108.755 24.4762 109.763 27.2222C110.77 29.9682 113.024 41.0579 113.024 41.0579C113.024 41.0579 107.172 42.2277 105.639 41.0579C104.739 40.3636 103.626 40.0548 102.521 40.1932L99.2119 42.5834L98.2347 42.2768C98.2347 42.2768 103.528 33.93 104.679 31.0936C105.829 28.2571 106.218 26.9892 104.322 25.8101Z" fill="black"/>
<path d="M104.129 25.1968C104.129 25.1968 108.566 23.8629 109.578 26.6089C110.589 29.3549 112.839 40.4446 112.839 40.4446C112.839 40.4446 106.989 41.6145 105.454 40.4446C104.554 39.7503 103.441 39.4415 102.337 39.5799L99.0254 41.9702L98.0482 41.6635C98.0482 41.6635 103.342 33.3167 104.492 30.4803C105.643 27.6438 106.026 26.3789 104.129 25.1968Z" fill="#E8F5FF"/>
<path opacity="0.1" d="M74.3709 69.4377C74.3709 69.4377 77.6797 70.3024 78.3042 72.2864C78.9286 74.2703 75.8584 74.3209 75.8584 74.3209C75.8584 74.3209 73.9879 70.8114 74.3709 69.4377Z" fill="black"/>
<path opacity="0.1" d="M86.6953 84.086C86.6953 84.086 78.5918 101.686 80.4623 103.365C82.3328 105.043 86.6953 84.086 86.6953 84.086Z" fill="black"/>
<path opacity="0.1" d="M97.869 71.1165C97.869 71.1165 104.343 88.2119 103.048 90.8521C101.753 93.4923 105.829 90.8521 105.829 90.8521L97.869 71.1165Z" fill="black"/>
<path d="M106.885 88.0034C106.885 88.0034 85.017 89.1226 91.396 96.3456C97.775 103.569 110.865 96.6522 110.865 96.6522L106.885 88.0034Z" fill="#FFC1C7"/>
<path opacity="0.1" d="M103.72 19.3354C103.722 20.9989 103.414 22.6465 102.814 24.1834C102.613 24.2079 102.412 24.2232 102.219 24.2324C101.929 23.5594 102.084 22.782 102.09 22.0415C102.096 21.3009 101.838 20.4301 101.166 20.2307C99.8263 19.8306 98.9012 22.4876 97.58 22.0077C96.5681 21.6428 96.8326 20.0146 96.2501 19.0747C95.789 18.3311 94.8653 18.121 94.1469 17.6549C92.619 16.6599 92.6653 15.0684 91.9555 13.5628C91.2126 11.9851 89.6427 12.4512 88.2796 13.3819C87.2446 14.0902 86.3513 15.0393 85.2441 15.6035C84.2857 16.0941 83.2088 16.272 82.1464 16.2981C81.4923 16.3249 80.838 16.2516 80.2036 16.0803C80.9498 13.105 82.6907 10.519 85.1018 8.80473C87.513 7.09045 90.4296 6.36485 93.3079 6.76327C96.1862 7.16168 98.8296 8.6569 100.745 10.9701C102.661 13.2833 103.718 16.2565 103.719 19.3354H103.72Z" fill="black"/>
<path d="M88.2839 12.9756C87.2474 13.6839 86.3556 14.6315 85.2483 15.1987C84.29 15.6878 83.2131 15.8657 82.1506 15.8918C80.8497 15.9224 79.449 15.6802 78.56 14.6836C77.7433 13.7637 77.5481 12.3485 77.8936 11.1419C78.2391 9.93523 79.0674 8.93404 80.0402 8.20883C81.013 7.48362 82.1419 6.98226 82.7866 5.94427C83.1278 5.39538 83.2926 4.74837 83.5759 4.16421C84.4822 2.29522 86.5204 1.2833 88.4906 1.15758C90.4608 1.03186 92.4137 1.65434 94.2899 2.32895C96.1662 3.00357 98.0569 3.74564 100.037 3.88517C100.919 3.94343 101.835 3.88517 102.654 4.23934C103.754 4.7131 104.475 5.84615 104.966 6.99912C105.517 8.29929 105.86 9.71904 105.802 11.1388C105.68 14.17 103.793 17.1444 104.622 20.0483C104.842 20.8226 105.254 21.6168 105.034 22.3911C104.713 23.521 103.339 23.7786 102.227 23.8323C101.938 23.1592 102.093 22.3803 102.099 21.6413C102.104 20.9023 101.847 20.0299 101.176 19.8306C99.8348 19.4335 98.9097 22.0859 97.5914 21.6076C96.5868 21.2411 96.847 19.6144 96.263 18.6745C95.8019 17.9294 94.8768 17.7209 94.1598 17.2548C92.6319 16.2597 92.6782 14.6683 91.9684 13.1626C91.2197 11.5773 89.6484 12.0434 88.2839 12.9756Z" fill="#99607E"/>
<path d="M67.0798 71.3189L65.9769 71.7267C65.9769 71.7267 66.4106 78.6446 64.9651 80.6286C63.5196 82.6126 69.7121 87.5449 69.7121 87.5449C69.7121 87.5449 78.2 87.4943 78.44 86.7783C78.6799 86.0623 78.0063 73.9606 78.0063 73.9606C78.0063 73.9606 73.4501 72.0779 73.8332 69.0774C73.8332 69.0774 72.4426 76.147 70.3813 75.8419C68.3201 75.5368 65.9798 73.7107 67.0798 71.3189Z" fill="#E8F5FF"/>
<path opacity="0.1" d="M70.7587 77.9823C72.3657 77.9823 73.6685 76.7186 73.6685 75.1596C73.6685 73.6007 72.3657 72.337 70.7587 72.337C69.1516 72.337 67.8489 73.6007 67.8489 75.1596C67.8489 76.7186 69.1516 77.9823 70.7587 77.9823Z" fill="black"/>
<path d="M73.9402 71.5229C73.9402 71.5229 73.3619 52.8054 68.3287 56.9758C63.2955 61.1461 63.2463 66.1337 64.2047 67.6071C65.1631 69.0805 68.2362 76.4568 68.2362 76.4568C68.7169 76.7523 69.2568 76.9228 69.8116 76.9543C70.3664 76.9858 70.9203 76.8775 71.428 76.6381C71.9358 76.3988 72.3828 76.0353 72.7325 75.5773C73.0822 75.1194 73.3247 74.5801 73.44 74.0037L73.9402 71.5229Z" fill="#FFC1C7"/>
<path opacity="0.1" d="M105.338 24.1113C105.314 24.0291 105.269 23.9557 105.208 23.8997C104.959 23.659 104.424 23.5747 103.618 23.6483L103.651 24.0531C104.726 23.9549 104.939 24.1819 104.966 24.2202V24.2585L105 24.3091C105.134 24.5003 105.229 24.719 105.278 24.9514C105.328 25.1837 105.332 25.4245 105.289 25.6583C105.053 26.9079 103.606 27.903 103.592 27.9137L103.557 27.9352L103.535 27.9704C102.911 28.9532 99.3795 31.7268 98.4558 32.4443L98.3749 32.3462C97.9615 32.7265 94.3275 36.1011 94.1309 37.3936C94.0037 38.2046 93.1422 38.5189 92.83 38.6063C92.5004 38.3411 91.4307 37.438 90.8742 36.4261C90.3524 35.474 92.4527 33.6157 92.6377 32.8905L92.3486 32.5762C92.3182 32.6927 89.6209 35.3667 90.3712 36.7328C90.9725 37.829 92.0711 38.7673 92.4556 39.077C92.3327 40.2607 91.568 47.2107 90.3928 48.8574C88.9329 50.9043 87.7057 61.2197 87.8415 64.8212C87.9615 68.0211 87.1737 74.065 84.5429 76.6607C84.0874 77.1298 83.538 77.4837 82.9355 77.6961C82.3331 77.9085 81.6932 77.9739 81.0636 77.8873H81.0318H81C80.9624 77.8873 77.1463 78.3013 73.9402 75.4341C71.3166 73.0929 69.8306 69.2722 69.5213 64.0746H69.4577L69.4317 62.5613C70.143 62.4435 70.7836 62.0379 71.2189 61.4296C71.6542 60.8214 71.8503 60.0578 71.766 59.2995C71.6817 58.5411 71.3235 57.8469 70.7667 57.3627C70.21 56.8785 69.4979 56.6421 68.7803 56.7031C68.0626 56.7641 67.3952 57.1178 66.9182 57.6898C66.4412 58.2619 66.1919 59.0077 66.2225 59.7707C66.2531 60.5336 66.5613 61.2543 67.0824 61.7813C67.6035 62.3082 68.2968 62.6004 69.0168 62.5965H69.0486L69.0746 64.1006L68.9474 64.1098C69.2654 69.4761 70.8266 73.4456 73.573 75.8972C75.6605 77.7319 78.327 78.6575 81.0332 78.4868C81.2253 78.5091 81.4183 78.5203 81.6114 78.5205C82.8519 78.5273 84.0455 78.0181 84.9361 77.1023C87.7071 74.3655 88.5498 68.0993 88.4183 64.7906C88.2737 60.9744 89.5617 51.03 90.854 49.2192C92.1202 47.4423 92.8878 40.5183 93.0222 39.1767C93.4804 39.0402 94.5169 38.6094 94.6932 37.4902C94.8204 36.6806 97.2474 34.1861 98.7406 32.8047L98.6958 32.7495C99.4995 32.127 101.999 30.1645 103.238 28.9042C103.622 28.5132 104.004 28.1222 104.403 27.7496C104.883 27.2989 105.493 26.5829 105.653 25.7365C105.708 25.4572 105.708 25.1689 105.654 24.8894C105.6 24.6099 105.492 24.3451 105.338 24.1113V24.1113Z" fill="black"/>
<path d="M92.4065 38.9804C92.3458 38.936 90.906 37.8428 90.1847 36.5273C89.436 35.1612 92.1333 32.4888 92.1622 32.3723L92.4513 32.6866C92.2677 33.4102 90.1674 35.27 90.6892 36.2206C91.3469 37.4212 92.7317 38.4714 92.7462 38.4821L92.4065 38.9804Z" fill="#353146"/>
<path d="M98.268 32.7418L98.0425 32.4121C98.0887 32.3769 102.629 28.8934 103.345 27.7665L103.368 27.7328L103.401 27.7098C103.415 27.699 104.862 26.7055 105.098 25.4544C105.141 25.2208 105.138 24.9801 105.088 24.748C105.039 24.5158 104.943 24.2973 104.809 24.1067L104.776 24.0546V24.0178C104.747 23.9779 104.534 23.7525 103.459 23.8507L103.426 23.4444C104.234 23.3708 104.767 23.4551 105.016 23.6958C105.078 23.7523 105.123 23.8262 105.147 23.9089C105.303 24.142 105.413 24.4066 105.469 24.6864C105.525 24.9662 105.527 25.2552 105.474 25.5357C105.313 26.3835 104.705 27.0995 104.223 27.5488C103.826 27.9213 103.443 28.3154 103.06 28.7033C101.607 30.1798 98.427 32.6206 98.268 32.7418Z" fill="#E8F5FF"/>
<path d="M69.2452 62.0275L68.8622 62.0349L68.9049 64.5045L69.2879 64.4971L69.2452 62.0275Z" fill="#E8F5FF"/>
<path d="M68.8304 62.4018C70.3751 62.4018 71.6274 61.0735 71.6274 59.435C71.6274 57.7965 70.3751 56.4682 68.8304 56.4682C67.2856 56.4682 66.0333 57.7965 66.0333 59.435C66.0333 61.0735 67.2856 62.4018 68.8304 62.4018Z" fill="#6C63FF"/>
<path d="M68.8304 61.8989C70.1133 61.8989 71.1533 60.7958 71.1533 59.435C71.1533 58.0743 70.1133 56.9712 68.8304 56.9712C67.5475 56.9712 66.5074 58.0743 66.5074 59.435C66.5074 60.7958 67.5475 61.8989 68.8304 61.8989Z" fill="#E8F5FF"/>
<path d="M81.4294 78.3227C81.2363 78.323 81.0433 78.3122 80.8512 78.2905C78.1451 78.4595 75.4793 77.5342 73.391 75.7009C70.6445 73.2477 69.0863 69.2829 68.7654 63.912L69.3436 63.8737C69.6529 69.0713 71.1389 72.8936 73.7639 75.2333C76.97 78.0927 80.7847 77.6864 80.8223 77.6864H80.8541H80.8859C81.5157 77.7725 82.1557 77.707 82.7583 77.4946C83.3609 77.2823 83.9107 76.9286 84.3667 76.4598C86.996 73.8641 87.7838 67.8202 87.6639 64.6204C87.5193 61.0158 88.7465 50.7003 90.2079 48.655C91.4872 46.8627 92.2808 38.7842 92.2895 38.7029L92.3111 38.4729L92.5251 38.4331C92.5381 38.4331 93.787 38.1816 93.9431 37.1912C94.1455 35.9002 97.7737 32.5256 98.1856 32.1438L98.5629 32.6038C97.0639 33.9837 94.6369 36.4798 94.5155 37.2908C94.3392 38.4131 93.3027 38.8424 92.846 38.9774C92.7014 40.3205 91.9396 47.2429 90.6777 49.0199C89.3854 50.8306 88.0975 60.7751 88.2421 64.5912C88.3664 67.8999 87.5323 74.1677 84.7613 76.9029C83.869 77.8211 82.6725 78.3309 81.4294 78.3227Z" fill="#353146"/>
<g opacity="0.1">
<path opacity="0.1" d="M104.952 15.7108C105.189 14.7817 105.475 13.8464 105.675 12.905C105.436 13.851 105.148 14.7817 104.952 15.7108Z" fill="black"/>
<path opacity="0.1" d="M102.534 23.012C102.245 22.3389 102.399 21.56 102.405 20.821C102.411 20.082 102.153 19.2173 101.483 19.0103C100.141 18.6132 99.2162 21.2672 97.8979 20.7873C96.8861 20.4209 97.1535 18.7941 96.5695 17.8543C96.1084 17.1091 95.1847 16.9006 94.4677 16.4345C92.9384 15.4394 92.9847 13.848 92.2764 12.3423C91.5319 10.7631 89.9636 11.2292 88.599 12.1614C87.5626 12.8698 86.6707 13.8188 85.5635 14.3846C84.6051 14.8737 83.5282 15.0515 82.4658 15.0776C81.172 15.1098 79.7641 14.866 78.8751 13.8694C78.19 13.1028 77.9428 11.979 78.0845 10.9257C78.0599 10.9977 78.0382 11.0698 78.0165 11.1418C77.6696 12.3485 77.872 13.7667 78.6829 14.6836C79.5719 15.6802 80.9798 15.9224 82.2735 15.8917C83.3374 15.8657 84.4128 15.6878 85.3727 15.1987C86.4828 14.6314 87.3747 13.6839 88.4082 12.9756C89.7728 12.0434 91.3426 11.5773 92.0856 13.1565C92.7939 14.6621 92.749 16.2536 94.2769 17.2486C94.9997 17.7086 95.9176 17.9232 96.3801 18.6684C96.9583 19.6113 96.7025 21.235 97.7086 21.6014C99.0254 22.0798 99.9505 19.4273 101.292 19.8244C101.963 20.0238 102.221 20.8977 102.214 21.6352C102.207 22.3726 102.057 23.153 102.343 23.8261C103.454 23.7725 104.829 23.5195 105.151 22.3849C105.196 22.2221 105.216 22.053 105.212 21.8835C104.742 22.7437 103.534 22.9645 102.534 23.012Z" fill="black"/>
</g>
<path opacity="0.1" d="M128.658 60.7904L130.336 62.6732C130.336 62.6732 131.679 73.0484 132.35 74.019C133.021 74.9895 134.605 78.8501 133.118 81.7494C133.118 81.7494 132.638 83.3271 132.925 83.9879C133.213 84.6487 130.769 87.9559 130.769 87.9559C130.769 87.9559 127.555 91.007 126.883 91.4654C126.211 91.9238 122.664 95.5851 121.465 95.6357C120.267 95.6863 119.875 97.264 119.875 97.264L113.113 97.5185C113.113 97.5185 109.378 97.3115 108.566 97.8712C108.566 97.8712 108.999 91.818 104.826 87.8501L110.149 85.8155C110.149 85.8155 112.164 84.8956 112.787 83.9342C113.179 83.3449 113.735 82.9004 114.377 82.6632C114.377 82.6632 115.863 81.544 115.91 80.9338C115.958 80.3235 117.727 79.5753 117.727 79.5753L116.726 70.5064L117.253 55.4502C117.253 55.4502 118.931 42.8349 122.48 43.5479C126.029 44.2608 128.658 60.7904 128.658 60.7904Z" fill="black"/>
<path d="M129.236 60.7904L130.915 62.6732C130.915 62.6732 132.257 73.0484 132.928 74.019C133.599 74.9895 135.183 78.8501 133.696 81.7494C133.696 81.7494 133.217 83.3271 133.505 83.9879C133.793 84.6487 131.347 87.9559 131.347 87.9559C131.347 87.9559 128.133 91.007 127.461 91.4654C126.789 91.9238 123.242 95.5851 122.044 95.6357C120.845 95.6863 120.454 97.264 120.454 97.264L113.691 97.5185C113.691 97.5185 109.953 97.3115 109.144 97.8712C109.144 97.8712 109.578 91.818 105.404 87.8501L110.727 85.8155C110.727 85.8155 112.742 84.8956 113.365 83.9342C113.757 83.3449 114.313 82.9004 114.955 82.6632C114.955 82.6632 116.441 81.544 116.489 80.9338C116.536 80.3235 118.305 79.5753 118.305 79.5753L117.304 70.5064L117.831 55.4502C117.831 55.4502 119.51 42.8349 123.058 43.5479C126.607 44.2608 129.236 60.7904 129.236 60.7904Z" fill="#E8F5FF"/>
<path opacity="0.1" d="M122.998 75.9999C122.998 75.9999 127.937 74.62 129.232 76.3065C130.527 77.993 122.998 75.9999 122.998 75.9999Z" fill="black"/>
<path opacity="0.1" d="M121.847 78.3134C123.525 79.56 128.704 79.6105 128.704 79.6105L121.847 78.3134Z" fill="black"/>
<path opacity="0.1" d="M124.388 84.5445C124.533 84.5951 127.948 88.4618 129.382 87.292C130.816 86.1221 124.388 84.5445 124.388 84.5445Z" fill="black"/>
<path opacity="0.1" d="M78.3865 52.0925C78.3865 52.0925 79.3896 59.4182 78.8953 62.4018C78.4009 65.3855 80.2048 69.082 80.2048 69.082L78.3865 52.0925Z" fill="black"/>
<path d="M56.1779 55.0715C55.0215 56.0329 54.1773 58.3081 53.5659 60.8088C52.4991 65.1708 52.1507 70.2289 52.1507 70.2289C52.1507 70.2289 42.9429 67.9904 43.6136 66.9739C44.0357 66.3345 43.4691 61.5172 42.9964 58.0245C42.7145 55.9608 42.463 54.3586 42.463 54.3586C42.463 54.3586 59.3436 52.4252 56.1779 55.0715Z" fill="#FFCCD0"/>
<path opacity="0.1" d="M56.1779 54.8676C55.0215 55.8304 54.1773 58.1042 53.5659 60.6048C51.7313 61.1957 49.7802 61.249 47.9194 60.7591C46.0586 60.2692 44.3575 59.2543 42.9964 57.8221C42.7145 55.7568 42.463 54.1546 42.463 54.1546C42.463 54.1546 59.3436 52.2228 56.1779 54.8676Z" fill="black"/>
<path d="M61.1273 49.3879C61.1283 52.0546 60.2397 54.6358 58.619 56.6745C56.9983 58.7132 54.7498 60.078 52.2716 60.5273C49.7933 60.9767 47.2451 60.4817 45.0779 59.1299C42.9107 57.778 41.2643 55.6566 40.4299 53.1409C39.5956 50.6253 39.6272 47.8777 40.5192 45.3844C41.4112 42.8911 43.1059 40.8129 45.3036 39.5176C47.5013 38.2223 50.0601 37.7934 52.5273 38.3068C54.9944 38.8202 57.2108 40.2428 58.7841 42.3228C60.3003 44.3265 61.1268 46.8187 61.1273 49.3879V49.3879Z" fill="#FFCCD0"/>
<path opacity="0.1" d="M69.5227 120.002H66.4871L66.2313 114.315L65.9639 108.429C65.9639 108.429 66.6534 108.32 67.752 108.157L68.1957 108.095H68.2319C68.4718 109.289 68.7089 110.516 68.9373 111.741C69.3174 113.915 69.5153 116.122 69.5285 118.333C69.5285 118.487 69.5285 118.64 69.5285 118.784C69.5371 119.194 69.5285 119.603 69.5227 120.002Z" fill="black"/>
<path d="M68.9403 120.001H30.8716C31.0364 119.604 31.1462 119.364 31.1462 119.364C31.1462 119.364 34.1919 105.231 35.74 99.251C35.7405 99.2459 35.7405 99.2408 35.74 99.2357C35.9335 98.4234 36.167 97.6225 36.4396 96.8362V96.8362C36.4573 96.7827 36.48 96.7314 36.5076 96.6829C37.2737 95.3612 38.2335 93.9369 36.8906 91.9023C35.5478 89.8677 36.0233 80.9153 36.0233 80.9153C36.0233 80.9153 37.6539 73.2845 39.3798 69.2154C39.6417 68.5851 40.0135 68.0129 40.4755 67.5289C40.6257 67.373 40.7861 67.2285 40.9554 67.0965V67.0965C41.0841 66.9939 41.2183 66.8992 41.3572 66.8128L41.3847 66.7944C42.1097 66.3584 42.9148 66.0933 43.7452 66.0171C44.335 65.9517 44.9304 65.9692 45.5159 66.0692C48.3144 66.5047 50.5549 67.2329 52.3358 68.0624C57.1623 70.3116 58.6237 73.3259 58.6526 73.3888L58.6642 73.4148C58.8579 73.8947 61.6911 80.9107 62.7116 84.1841C62.9761 85.0366 63.1207 85.6361 63.0629 85.8001C62.7738 86.6127 65.2687 96.7856 65.2687 96.7856C65.2687 96.7856 66.4251 101.692 67.5815 107.443C67.6321 107.682 67.6798 107.921 67.726 108.164C67.9327 109.208 68.138 110.272 68.336 111.334C68.7197 113.524 68.9176 115.746 68.9273 117.973C68.9485 118.667 68.9528 119.343 68.9403 120.001Z" fill="#FF3E98"/>
<path opacity="0.1" d="M43.5182 62.5183C43.5182 62.5183 40.8917 61.4451 40.9235 63.0733C40.9553 64.7016 41.5639 65.4805 41.3716 65.7181C41.1794 65.9558 41.467 67.3801 41.467 67.3801C41.467 67.3801 45.0157 67.3801 46.6462 68.159C48.2768 68.9379 54.2872 70.4987 55.0547 70.974C55.8223 71.4493 58.6685 73.5804 58.6685 73.5804L58.9243 69.545C58.9243 69.545 55.9827 66.9677 51.1562 65.6461C46.3297 64.3244 43.5182 62.5183 43.5182 62.5183Z" fill="black"/>
<path d="M43.5182 62.3144C43.5182 62.3144 40.8917 61.2411 40.9235 62.8694C40.9553 64.4977 41.5639 65.2766 41.3716 65.5142C41.1794 65.7519 41.467 67.1762 41.467 67.1762C41.467 67.1762 45.0157 67.1762 46.6462 67.9566C48.2768 68.737 54.2872 70.2963 55.0547 70.7701C55.8223 71.2438 58.6685 73.3765 58.6685 73.3765L58.9272 69.3534C58.9272 69.3534 55.9856 66.776 51.1591 65.4544C46.3326 64.1328 43.5182 62.3144 43.5182 62.3144Z" fill="#FF3E98"/>
<path opacity="0.1" d="M51.4468 72.0258C51.4468 72.0258 56.4656 77.7891 56.2097 79.3851C55.9539 80.9812 51.4468 72.0258 51.4468 72.0258Z" fill="black"/>
<path opacity="0.1" d="M43.2942 92.8453C43.2942 92.8453 39.6154 96.4407 38.5313 96.6446C37.4472 96.8485 39.3624 97.5262 40.6085 96.985C41.8545 96.4437 44.5113 95.0194 44.5113 95.0194L43.2942 92.8453Z" fill="black"/>
<path d="M70.4348 120.002H61.8558C60.656 118.898 59.5213 117.875 58.7985 117.26C57.6421 116.276 56.8081 114.827 56.2761 113.662C56.1562 113.396 56.0521 113.148 55.9639 112.923C55.806 112.534 55.6671 112.138 55.5476 111.734L61.9006 107.733C62.2517 108.049 62.5816 108.392 62.8879 108.757L62.9645 108.85C63.3172 109.292 63.628 109.793 63.6554 110.204C63.6872 110.683 64.9419 112.533 66.2241 114.31C67.525 116.118 68.8578 117.846 68.946 117.962C68.946 117.962 69.1657 118.28 69.5242 118.767C69.7771 119.12 70.0894 119.543 70.4348 120.002Z" fill="#FFCCD0"/>
<path opacity="0.1" d="M58.7842 42.3228C58.4792 43.0526 58.206 43.81 58.1655 44.6226C58.0513 46.9684 58.2363 52.2135 55.7877 53.3911C54.5749 53.9706 53.2768 52.698 51.947 52.6674C50.99 52.6459 50.1126 53.2899 49.5286 54.0948C48.9447 54.8997 48.5818 55.8549 48.1583 56.7657C47.7728 57.5923 47.3287 58.3867 46.8299 59.1421C46.6808 59.3733 46.5166 59.5931 46.3384 59.7999C44.8453 59.1316 43.5157 58.1107 42.451 56.8148C41.3862 55.5189 40.6144 53.9824 40.1943 52.3222C39.7742 50.662 39.7169 48.922 40.0268 47.2348C40.3368 45.5476 41.0057 43.9577 41.9827 42.5862C42.9597 41.2148 44.2189 40.098 45.6645 39.3209C47.11 38.5438 48.7037 38.127 50.3242 38.1022C51.9446 38.0773 53.549 38.4452 55.0151 39.1777C56.4812 39.9101 57.7703 40.9879 58.7842 42.3289V42.3228Z" fill="black"/>
<path d="M57.9732 44.2087C57.8576 46.5545 58.044 51.7996 55.5939 52.9756C54.3811 53.5551 53.0831 52.2841 51.7532 52.2534C50.7963 52.2304 49.9203 52.8759 49.3349 53.6793C48.7495 54.4827 48.3895 55.4395 47.9646 56.3517C47.5789 57.1783 47.1348 57.9727 46.6361 58.7282C46.3384 59.1759 46.0088 59.6251 45.5506 59.8766C44.7527 60.3181 43.7856 60.0698 42.9299 59.7861C41.8197 59.4151 40.726 58.997 39.6486 58.532C39.6733 58.3594 39.6859 58.1852 39.6862 58.0107C39.6544 58.0751 39.6197 58.1349 39.585 58.1992L39.5171 58.325C39.3942 58.555 39.2742 58.7849 39.1644 59.021C39.1224 59.1115 39.082 59.205 39.0458 59.2986C38.9005 59.6466 38.8092 60.0173 38.7755 60.3963C38.7018 61.419 39.1774 62.3895 39.5995 63.3094C41.2228 66.868 42.2259 71.0292 41.0045 74.7625C40.4754 76.3862 39.559 77.829 38.8897 79.3974C37.7198 82.1755 37.3754 85.2656 37.9024 88.2563C38.2363 90.1146 38.9056 91.9545 38.7408 93.8388C38.4517 97.0815 35.8151 99.4948 33.1742 101.154C31.7475 102.046 30.0013 102.84 28.4865 102.135C29.452 100.939 29.7007 99.2847 29.9088 97.7239C30.4784 93.4667 31.0493 89.2075 31.6217 84.9461C31.8501 83.2504 32.078 81.5547 32.3055 79.8589C32.7304 76.6729 33.1612 73.4517 32.8952 70.2457C32.7015 67.883 32.1551 65.3747 33.1207 63.2359C33.631 62.1028 34.5402 61.1645 34.8235 59.944C35.0562 58.9521 34.8394 57.8972 34.9926 56.8868C35.0765 56.4271 35.2185 55.9815 35.4147 55.5621C35.6646 54.993 35.9908 54.4652 36.3832 53.9952C35.9958 53.8756 35.6344 53.7115 35.4147 53.3681C36.0363 52.9388 36.1303 51.9713 35.8484 51.2446C35.5665 50.5179 35.0028 49.9644 34.4954 49.3909C33.988 48.8175 33.4994 48.149 33.4358 47.3671C33.313 45.8783 34.7151 44.7254 34.9623 43.2566C35.2124 41.7617 34.2236 40.3082 34.3031 38.7949C34.3957 36.9658 35.9799 35.6365 37.544 34.8653C39.9041 33.7064 42.5114 33.2303 45.101 33.4854C47.2086 33.697 49.2482 34.3885 51.3499 34.6568C52.6176 34.8101 53.9027 34.8254 55.1617 35.0615C56.4207 35.2976 57.6827 35.7959 58.5687 36.7757C60.9047 39.3591 58.1062 41.4857 57.9732 44.2087Z" fill="#FFE0D0"/>
<path opacity="0.1" d="M56.0189 113.663C55.2817 113.324 53.9403 113.527 51.6376 112.783C49.3349 112.04 48.8911 108.679 48.8911 108.679V108.668C48.8637 108.591 48.6497 108.092 47.2013 106.341C45.6012 104.407 42.1421 94.6422 42.1421 94.6422C42.1421 94.6422 39.0747 91.148 39.1716 89.8601C39.2684 88.5722 38.6266 85.1454 38.6902 81.3124C38.7538 77.4794 45.5954 74.9373 45.5954 74.9373C58.7682 72.4612 55.6662 88.5691 55.3149 89.7895C54.9637 91.01 56.7865 94.3064 56.7865 94.3064C56.5292 95.7415 57.8417 97.9631 57.8417 97.9631C57.8417 97.9631 58.1597 99.9287 58.2247 100.675C58.2283 100.71 58.2356 100.744 58.2464 100.777C58.4575 101.48 60.1776 102.118 60.8772 102.506C61.613 102.914 63.9793 106.474 63.9793 106.474C64.4895 109.088 56.7532 114.007 56.0189 113.663Z" fill="black"/>
<path d="M56.402 113.05C55.6662 112.71 54.3234 112.914 52.0221 112.168C49.7209 111.423 49.2757 108.066 49.2757 108.066V108.055C49.2497 107.977 49.0343 107.478 47.5859 105.727C45.9857 103.794 42.5266 94.0274 42.5266 94.0274C42.5266 94.0274 39.4593 90.5347 39.5547 89.2468C39.6501 87.9589 39.0112 84.5322 39.0748 80.7022C39.1384 76.8723 45.9756 74.3317 45.9756 74.3317C59.1485 71.8556 56.0464 87.9635 55.6951 89.184C55.3439 90.4044 57.1667 93.7008 57.1667 93.7008C56.9094 95.1359 58.2219 97.3576 58.2219 97.3576C58.2219 97.3576 58.5399 99.3231 58.6064 100.07C58.6088 100.104 58.6156 100.138 58.6266 100.171C58.8377 100.875 60.5578 101.513 61.2589 101.9C61.9932 102.307 64.3609 105.868 64.3609 105.868C64.8741 108.478 57.1378 113.397 56.402 113.05Z" fill="#FF3E98"/>
<path opacity="0.1" d="M46.2357 82.7414C46.2357 82.7414 51.9903 89.1809 53.4921 89.1809C54.994 89.1809 46.2357 82.7414 46.2357 82.7414Z" fill="black"/>
<path d="M56.402 113.05C55.6662 112.71 54.3233 112.913 52.0221 112.168C49.7208 111.423 49.2756 108.065 49.2756 108.065V108.055C50.8006 106.981 54.663 103.95 56.1851 102.842C57.2562 102.064 58.1308 100.922 58.6425 100.165C58.8535 100.869 60.5737 101.506 61.2747 101.894C62.009 102.301 64.3768 105.862 64.3768 105.862C64.874 108.478 57.1377 113.396 56.402 113.05Z" fill="#FF3E98"/>
<g opacity="0.1">
<path opacity="0.1" d="M35.4235 53.3849C35.4307 53.3972 35.4407 53.4079 35.4494 53.4202C35.4925 53.3619 35.5371 53.3037 35.5832 53.2485C35.5342 53.2993 35.4807 53.345 35.4235 53.3849V53.3849Z" fill="black"/>
<path opacity="0.1" d="M38.777 60.4132C38.8377 59.5623 39.267 58.8125 39.6688 58.0643C39.4058 57.957 39.1427 57.8481 38.8825 57.7347C38.9073 57.5627 38.9198 57.3889 38.9201 57.2149C38.5139 57.9815 38.0716 58.7359 38.0094 59.5991C37.9357 60.6232 38.4113 61.5922 38.8333 62.5122C40.4581 66.0692 41.4598 70.2304 40.2384 73.9653C39.7079 75.5874 38.7929 77.0317 38.1236 78.6002C36.9541 81.3778 36.6102 84.4674 37.1378 87.4576C37.4688 89.3174 38.1395 91.1557 37.9747 93.04C37.6856 96.2827 35.0505 98.696 32.4081 100.353C31.3283 101.031 30.0664 101.652 28.8594 101.608C28.7477 101.798 28.623 101.98 28.4865 102.152C30.0028 102.862 31.7475 102.063 33.1742 101.168C35.818 99.5117 38.459 97.1045 38.7481 93.8557C38.9128 91.9713 38.2421 90.133 37.9097 88.2732C37.382 85.2834 37.7248 82.194 38.8926 79.4159C39.5575 77.8489 40.4827 76.4031 41.0074 74.7809C42.2288 71.046 41.2257 66.8849 39.6024 63.3278C39.1817 62.4018 38.7033 61.4374 38.777 60.4132Z" fill="black"/>
<path opacity="0.1" d="M58.5658 36.794C58.4236 36.6393 58.271 36.4958 58.1091 36.3647C59.861 38.775 57.3314 40.8233 57.2056 43.4175C57.0929 45.7633 57.2779 51.01 54.8278 52.1844C53.6164 52.7655 52.3169 51.4929 50.9885 51.4623C50.0301 51.4408 49.1542 52.0863 48.5687 52.8897C47.9833 53.6931 47.6234 54.6498 47.1999 55.5605C46.8135 56.387 46.3689 57.1814 45.87 57.937C45.5809 58.3862 45.2426 58.8339 44.783 59.0869C43.988 59.527 43.0209 59.2801 42.1637 58.9949C41.3302 58.7169 40.5043 58.4103 39.6861 58.075C39.6845 58.2347 39.6719 58.3941 39.6486 58.5518C40.7269 59.0179 41.8211 59.436 42.9313 59.806C43.787 60.0912 44.7541 60.338 45.5505 59.898C46.0088 59.645 46.3412 59.1958 46.6376 58.7465C47.1369 57.992 47.581 57.198 47.966 56.3716C48.3909 55.4609 48.7494 54.5026 49.3363 53.6992C49.9232 52.8958 50.7977 52.2519 51.7546 52.2733C53.0845 52.304 54.384 53.5766 55.5953 52.9955C58.0454 51.821 57.859 46.5744 57.9732 44.2286C58.1062 41.501 60.9047 39.376 58.5658 36.794Z" fill="black"/>
</g>
<path opacity="0.1" d="M39.5186 58.3265C39.3957 58.5565 39.2757 58.7865 39.1659 59.0226C39.124 59.1131 39.0835 59.2066 39.0474 59.3001C38.2899 58.4906 36.4455 56.5664 35.4163 55.97C35.6665 55.4011 35.9927 54.8733 36.3847 54.403C36.3847 54.403 38.8378 55.7783 39.5186 58.3265Z" fill="black"/>
<path d="M39.5865 58.2008C39.0184 55.4732 36.3847 53.9967 36.3847 53.9967C35.9924 54.4667 35.6661 54.9945 35.4163 55.5637C36.5018 56.1938 38.5024 58.3066 39.1659 59.0226L39.5865 58.2008Z" fill="#FF3E98"/>
</g>
<defs>
<linearGradient id="paint0_linear" x1="105.526" y1="14.6284" x2="105.526" y2="11.8103" gradientUnits="userSpaceOnUse">
<stop stop-color="#808080" stop-opacity="0.25"/>
<stop offset="0.54" stop-color="#808080" stop-opacity="0.12"/>
<stop offset="1" stop-color="#808080" stop-opacity="0.1"/>
</linearGradient>
<linearGradient id="paint1_linear" x1="66315.5" y1="100963" x2="66315.5" y2="7039.34" gradientUnits="userSpaceOnUse">
<stop stop-color="#808080" stop-opacity="0.25"/>
<stop offset="0.54" stop-color="#808080" stop-opacity="0.12"/>
<stop offset="1" stop-color="#808080" stop-opacity="0.1"/>
</linearGradient>
<clipPath id="clip0">
<rect width="157" height="120" fill="white"/>
</clipPath>
</defs>
</svg>
