<svg xmlns="http://www.w3.org/2000/svg" viewBox="0 0 332 332"><path d="M166 0C74.4 0 0 74.4 0 166s74.4 166 166 166 166-74.4 166-166S257.6 0 166 0zm0 317.6c-83.6 0-151.6-68-151.6-151.6S82.4 14.4 166 14.4s151.6 68 151.6 151.6-68 151.6-151.6 151.6z" fill="currentColor" /><path d="M252.4 130H202V79.6c0-4-3.2-7.2-7.2-7.2h-57.6c-4 0-7.2 3.2-7.2 7.2V130H79.6c-4 0-7.2 3.2-7.2 7.2v57.6c0 4 3.2 7.2 7.2 7.2H130v50.4c0 4 3.2 7.2 7.2 7.2h57.6c4 0 7.2-3.2 7.2-7.2V202h50.4c4 0 7.2-3.2 7.2-7.2v-57.6c-.4-4-3.6-7.2-7.2-7.2zm-6.8 57.6h-50.8c-4 0-7.2 3.2-7.2 7.2v50.4h-43.2v-50.4c0-4-3.2-7.2-7.2-7.2H86.8v-43.2h50.4c4 0 7.2-3.2 7.2-7.2V86.8H188v50.4c0 4 3.2 7.2 7.2 7.2h50.4v43.2z" fill="currentColor" /></svg>