<svg width="8" height="9" viewBox="0 0 8 9" fill="none" xmlns="http://www.w3.org/2000/svg">
<path fill-rule="evenodd" clip-rule="evenodd" d="M7.85352 0.632835C7.65826 0.437574 7.34168 0.437574 7.14642 0.632835L3.99998 3.77927L0.85355 0.632835C0.658289 0.437574 0.341707 0.437574 0.146446 0.632835C-0.0488153 0.828097 -0.0488153 1.14468 0.146446 1.33994L3.29288 4.48637L0.146446 7.63281C-0.0488153 7.82807 -0.0488153 8.14465 0.146446 8.33991C0.341707 8.53517 0.658289 8.53517 0.85355 8.33991L3.99998 5.19348L7.14642 8.33991C7.34168 8.53517 7.65826 8.53517 7.85352 8.33991C8.04878 8.14465 8.04878 7.82807 7.85352 7.63281L4.70709 4.48637L7.85352 1.33994C8.04878 1.14468 8.04878 0.828097 7.85352 0.632835Z" fill="currentColor"/>
</svg>
